{"title":"Roar.1981.BRRip.720p.x264.AAC-PRiSTiNE [P2PDL]","uid":13105976,"size":742156745,"categoryP":"video","categoryS":"hd___movies","magnet":"?xt=urn:btih:826001f779daca1c8ef0dd903a0b0efa94e6a95d&amp;dn=Roar.1981.BRRip.720p.x264.AAC-PRiSTiNE+%5BP2PDL%5D&amp;tr=udp%3A%2F%2Ftracker.leechers-paradise.org%3A6969&amp;tr=udp%3A%2F%2Fzer0day.ch%3A1337&amp;tr=udp%3A%2F%2Fopen.demonii.com%3A1337&amp;tr=udp%3A%2F%2Ftracker.coppersurfer.tk%3A6969&amp;tr=udp%3A%2F%2Fexodus.desync.com%3A6969","seeders":5,"leechers":3,"uploader":"VYTOP2PDL","files":6,"time":1451291540,"description":"____    ____ ____    ____ .___________.  ______   \r\n     /   /      /   / |           | /  __    \r\n    /   /      /   /  `---|  |----`|  |  |  | \r\n        /     _    _/       |  |     |  |  |  | \r\n       /        |  |         |  |     |  `--'  | \r\n    __/         |__|         |__|      ______/  \r\n                                                  \r\nPresenting Small Encodes with quality for years!\r\n                                                                                                   \r\n                                                                                                   \r\n\r\nRoar.1981.BRRip.720p.x264.AAC-PRiSTiNE\r\n\r\n\r\nGenre:  Adventure, Thriller \nhttp://www.imdb.com/title/tt0083001/\r\n\r\n\r\nFormat                                   : MPEG-4\r\nFile size                                : 696 MiB\r\nDuration                                 : 1h 34mn\r\nOverall bit rate                         : 1 031 Kbps\r\n\r\nVideo\r\nFormat                                   : AVC\r\nBit rate                                 : 949 Kbps\r\nWidth                                    : 1 280 pixels\r\nHeight                                   : 560 pixels\r\nDisplay aspect ratio                     : 2.25:1\r\nFrame rate mode                          : Constant\r\nFrame rate                               : 23.976 fps\r\nBit depth                                : 8 bits\r\nStream size                              : 640 MiB (92%)\r\nWriting library                          : x264\r\n\r\nAudio\r\nFormat                                   : AAC\r\nBit rate mode                            : Variable\r\nBit rate                                 : 79.9 Kbps\r\nChannel(s)                               : 2 channels\r\nChannel positions                        : Front: L R\r\nSampling rate                            : 48.0 KHz\r\nStream size                              : 53.9 MiB (8%)\r\nLanguage                                 : English\r\n\r\nSubtitle                                 : N/a\r\n\r\nScreen shots: (Click to view)\r\n \nhttp://ititli.com/Eg \nhttp://ititli.com/En \nhttp://ititli.com/Ew \nhttp://ititli.com/E2 \nhttp://ititli.com/E6 \nhttp://ititli.com/E8 \nhttp://ititli.com/Ee \nhttp://ititli.com/Ej \nhttp://ititli.com/Ek\r\n\r\n----------------------------------------------------------------------------------------------------\r\n\r\n\r\nEncoder Notes: Looking For Early Access To Anything You Can Provide WEBDL, DVDScr, DVDR, BluRay,\r\nDirect Audio, Music Releases and Seedboxes. If You Got anything to offer please contact us.\r\n\r\nSupport us by donating BC - 1FgwdzPsd1y25Gea8wP1qni35uGCtmkRCD\r\n\r\nSend some love!\r\nFind us and join us!","torrent":{"xt":"urn:btih:826001f779daca1c8ef0dd903a0b0efa94e6a95d","amp;dn":"Roar.1981.BRRip.720p.x264.AAC-PRiSTiNE+%5BP2PDL%5D","amp;tr":["udp%3A%2F%2Ftracker.leechers-paradise.org%3A6969","udp%3A%2F%2Fzer0day.ch%3A1337","udp%3A%2F%2Fopen.demonii.com%3A1337","udp%3A%2F%2Ftracker.coppersurfer.tk%3A6969","udp%3A%2F%2Fexodus.desync.com%3A6969"],"infoHash":"826001f779daca1c8ef0dd903a0b0efa94e6a95d","infoHashBuffer":{"type":"Buffer","data":[130,96,1,247,121,218,202,28,142,240,221,144,58,11,14,250,148,230,169,93]},"announce":[],"urlList":[]}}